<svg width="520" height="62" viewBox="0 0 520 62" fill="none" xmlns="http://www.w3.org/2000/svg">
<path d="M26.256 12.624C27.856 12.624 29.4453 12.816 31.024 13.2V22.416C28.912 21.9253 26.7573 21.68 24.56 21.68C22.384 21.68 20.4427 22.1387 18.736 23.056C17.0293 23.9733 15.6853 25.3813 14.704 27.28C13.744 29.1573 13.264 31.4933 13.264 34.288V50H2.576V25.552L0.272 13.616H11.088L12.72 23.44C13.8933 20.0693 15.6 17.424 17.84 15.504C20.08 13.584 22.8853 12.624 26.256 12.624ZM44.2875 35.152C45.0982 37.6267 46.6768 39.536 49.0235 40.88C51.3702 42.224 54.3462 42.896 57.9515 42.896C60.7035 42.896 63.4662 42.5013 66.2395 41.712C69.0128 40.9227 71.4982 39.8133 73.6955 38.384V45.552C71.2848 47.2587 68.4795 48.592 65.2795 49.552C62.1008 50.4907 58.7728 50.96 55.2955 50.96C50.9862 50.96 47.1248 50.16 43.7115 48.56C40.2982 46.9387 37.6315 44.6773 35.7115 41.776C33.7915 38.8533 32.8315 35.4933 32.8315 31.696C32.8315 27.9627 33.7488 24.656 35.5835 21.776C37.4182 18.8747 39.9675 16.624 43.2315 15.024C46.4955 13.424 50.1862 12.624 54.3035 12.624C58.4422 12.624 62.0475 13.552 65.1195 15.408C68.1915 17.2427 70.5488 19.8667 72.1915 23.28C73.8555 26.672 74.6875 30.6293 74.6875 35.152H44.2875ZM54.3675 20.496C51.6582 20.496 49.3862 21.1787 47.5515 22.544C45.7382 23.888 44.5435 25.7227 43.9675 28.048H64.2875C63.6688 25.6373 62.4955 23.7813 60.7675 22.48C59.0608 21.1573 56.9275 20.496 54.3675 20.496ZM113.291 13.616H123.979V40.304C123.979 44.784 122.976 48.6133 120.971 51.792C118.987 54.992 116.192 57.4133 112.587 59.056C108.982 60.6987 104.8 61.52 100.043 61.52C96.779 61.52 93.739 61.0933 90.923 60.24C88.107 59.408 85.3337 58.1067 82.603 56.336V47.952C87.467 51.664 93.0563 53.52 99.371 53.52C103.915 53.52 107.371 52.464 109.739 50.352C112.107 48.2613 113.291 45.1253 113.291 40.944V38.96C111.392 41.2427 109.024 43.0987 106.187 44.528C103.35 45.9573 100.203 46.672 96.747 46.672C93.3977 46.672 90.3683 45.968 87.659 44.56C84.971 43.1307 82.859 41.1253 81.323 38.544C79.787 35.9627 79.019 32.9973 79.019 29.648C79.019 26.2987 79.787 23.3333 81.323 20.752C82.859 18.1707 84.971 16.176 87.659 14.768C90.3683 13.3387 93.3977 12.624 96.747 12.624C100.203 12.624 103.339 13.3707 106.155 14.864C108.992 16.336 111.371 18.256 113.291 20.624V13.616ZM100.235 39.152C105.91 39.152 110.39 35.984 113.675 29.648C110.39 23.2907 105.91 20.112 100.235 20.112C98.0803 20.112 96.2137 20.5067 94.635 21.296C93.0777 22.0853 91.883 23.2053 91.051 24.656C90.219 26.0853 89.803 27.7493 89.803 29.648C89.803 31.5467 90.2083 33.2107 91.019 34.64C91.851 36.0693 93.0457 37.1787 94.603 37.968C96.1817 38.7573 98.059 39.152 100.235 39.152ZM141.413 35.152C142.223 37.6267 143.802 39.536 146.149 40.88C148.495 42.224 151.471 42.896 155.077 42.896C157.829 42.896 160.591 42.5013 163.365 41.712C166.138 40.9227 168.623 39.8133 170.821 38.384V45.552C168.41 47.2587 165.605 48.592 162.405 49.552C159.226 50.4907 155.898 50.96 152.421 50.96C148.111 50.96 144.25 50.16 140.837 48.56C137.423 46.9387 134.757 44.6773 132.837 41.776C130.917 38.8533 129.957 35.4933 129.957 31.696C129.957 27.9627 130.874 24.656 132.709 21.776C134.543 18.8747 137.093 16.624 140.357 15.024C143.621 13.424 147.311 12.624 151.429 12.624C155.567 12.624 159.173 13.552 162.245 15.408C165.317 17.2427 167.674 19.8667 169.317 23.28C170.981 26.672 171.813 30.6293 171.813 35.152H141.413ZM151.493 20.496C148.783 20.496 146.511 21.1787 144.677 22.544C142.863 23.888 141.669 25.7227 141.093 28.048H161.413C160.794 25.6373 159.621 23.7813 157.893 22.48C156.186 21.1573 154.053 20.496 151.493 20.496ZM203.059 12.624C206.494 12.624 209.427 13.3173 211.859 14.704C214.312 16.0693 216.179 18.0427 217.459 20.624C218.739 23.184 219.379 26.224 219.379 29.744V50H208.691V31.376C208.691 28.1333 207.891 25.6587 206.291 23.952C204.712 22.2453 202.43 21.392 199.443 21.392C197.352 21.392 195.528 21.8507 193.971 22.768C192.435 23.664 191.24 24.944 190.387 26.608C189.555 28.2507 189.139 30.1707 189.139 32.368V50H178.451V25.84L176.147 13.616H186.867L188.211 21.776C189.726 18.832 191.774 16.5707 194.355 14.992C196.958 13.4133 199.859 12.624 203.059 12.624ZM251.483 12.624C254.896 12.624 257.83 13.3173 260.283 14.704C262.736 16.0693 264.603 18.0427 265.883 20.624C267.184 23.184 267.835 26.224 267.835 29.744V50H257.115V31.376C257.115 28.1333 256.315 25.6587 254.715 23.952C253.136 22.2453 250.854 21.392 247.867 21.392C245.798 21.392 243.984 21.8507 242.427 22.768C240.891 23.664 239.696 24.944 238.843 26.608C238.011 28.2507 237.595 30.1707 237.595 32.368V50H226.875V0.719997H237.595V20.112C239.195 17.68 241.19 15.824 243.579 14.544C245.968 13.264 248.603 12.624 251.483 12.624ZM317.327 50H306.639L305.327 41.904C303.812 44.8053 301.796 47.0453 299.279 48.624C296.762 50.1813 293.946 50.96 290.831 50.96C287.503 50.96 284.644 50.2773 282.255 48.912C279.866 47.5253 278.042 45.552 276.783 42.992C275.524 40.4107 274.895 37.36 274.895 33.84V13.616H285.583V32.272C285.583 35.4933 286.34 37.9573 287.855 39.664C289.391 41.3493 291.588 42.192 294.447 42.192C296.495 42.192 298.266 41.7547 299.759 40.88C301.252 39.984 302.394 38.7147 303.183 37.072C303.994 35.408 304.399 33.456 304.399 31.216V13.616H315.087V37.808L317.327 50ZM350.472 12.624C353.992 12.624 357.117 13.424 359.848 15.024C362.6 16.624 364.733 18.8853 366.248 21.808C367.784 24.7093 368.552 28.048 368.552 31.824C368.552 35.5787 367.784 38.9067 366.248 41.808C364.733 44.7093 362.6 46.96 359.848 48.56C357.117 50.16 353.992 50.96 350.472 50.96C347.101 50.96 344.04 50.1707 341.288 48.592C338.536 46.992 336.242 44.7413 334.408 41.84V50H323.688V0.719997H334.408V21.648C336.242 18.768 338.536 16.5493 341.288 14.992C344.04 13.4133 347.101 12.624 350.472 12.624ZM347.496 42.64C349.458 42.64 351.218 42.1813 352.776 41.264C354.333 40.3467 355.549 39.0667 356.424 37.424C357.298 35.7813 357.736 33.9147 357.736 31.824C357.736 29.7333 357.298 27.8667 356.424 26.224C355.549 24.56 354.333 23.2693 352.776 22.352C351.218 21.4133 349.458 20.944 347.496 20.944C345.512 20.944 343.624 21.4133 341.832 22.352C340.061 23.2693 338.493 24.5493 337.128 26.192C335.762 27.8347 334.696 29.712 333.928 31.824C334.696 33.936 335.762 35.8133 337.128 37.456C338.493 39.0773 340.061 40.3467 341.832 41.264C343.624 42.1813 345.512 42.64 347.496 42.64ZM379.178 50.576C378.005 50.576 376.938 50.2987 375.978 49.744C375.018 49.1893 374.261 48.432 373.706 47.472C373.151 46.512 372.874 45.4453 372.874 44.272C372.874 43.12 373.151 42.064 373.706 41.104C374.261 40.1227 375.018 39.3547 375.978 38.8C376.938 38.2453 378.005 37.968 379.178 37.968C380.351 37.968 381.418 38.2453 382.378 38.8C383.338 39.3547 384.095 40.1227 384.65 41.104C385.205 42.064 385.482 43.12 385.482 44.272C385.482 45.4453 385.205 46.512 384.65 47.472C384.095 48.432 383.338 49.1893 382.378 49.744C381.418 50.2987 380.351 50.576 379.178 50.576ZM416.669 31.312L432.445 50H420.253L409.821 37.616L399.485 50H387.549L403.101 31.408L388.541 13.616H400.573L410.109 25.072L419.645 13.616H431.421L416.669 31.312ZM467.941 13.616H479.301L461.157 51.632C459.535 55.088 457.434 57.5947 454.853 59.152C452.271 60.7307 449.381 61.52 446.181 61.52C443.813 61.52 441.669 61.232 439.749 60.656C437.829 60.08 435.994 59.1947 434.245 58V50.288C436.101 51.4613 437.829 52.2933 439.429 52.784C441.029 53.296 442.799 53.552 444.741 53.552C446.597 53.552 448.186 53.136 449.509 52.304C450.853 51.4933 451.941 50.128 452.773 48.208L452.997 47.728H448.485L432.389 13.616H444.165L455.973 40.912L467.941 13.616ZM519.416 21.168L494.936 42.096H519.544V50H481.4V42.448L505.944 21.488H481.624V13.616H519.416V21.168Z" fill="black"/>
</svg>
